<svg xmlns="http://www.w3.org/2000/svg" version="1.1" xmlns:xlink="http://www.w3.org/1999/xlink" xmlns:svgjs="http://svgjs.dev/svgjs" width="1440" height="560" preserveAspectRatio="none" viewBox="0 0 1440 560"><g mask="url(&quot;#SvgjsMask1059&quot;)" fill="none"><path d="M832 218L831 572" stroke-width="10" stroke="url(&quot;#SvgjsLinearGradient1060&quot;)" stroke-linecap="round" class="Up"></path><path d="M1119 475L1118 242" stroke-width="6" stroke="url(&quot;#SvgjsLinearGradient1060&quot;)" stroke-linecap="round" class="Up"></path><path d="M1430 152L1429 -221" stroke-width="6" stroke="url(&quot;#SvgjsLinearGradient1061&quot;)" stroke-linecap="round" class="Down"></path><path d="M619 7L618 -307" stroke-width="8" stroke="url(&quot;#SvgjsLinearGradient1060&quot;)" stroke-linecap="round" class="Up"></path><path d="M772 443L771 31" stroke-width="10" stroke="url(&quot;#SvgjsLinearGradient1061&quot;)" stroke-linecap="round" class="Down"></path><path d="M1331 237L1330 -95" stroke-width="8" stroke="url(&quot;#SvgjsLinearGradient1061&quot;)" stroke-linecap="round" class="Down"></path><path d="M1217 201L1216 544" stroke-width="10" stroke="url(&quot;#SvgjsLinearGradient1061&quot;)" stroke-linecap="round" class="Down"></path><path d="M138 516L137 898" stroke-width="8" stroke="url(&quot;#SvgjsLinearGradient1060&quot;)" stroke-linecap="round" class="Up"></path><path d="M1240 338L1239 524" stroke-width="10" stroke="url(&quot;#SvgjsLinearGradient1060&quot;)" stroke-linecap="round" class="Up"></path><path d="M1304 107L1303 412" stroke-width="8" stroke="url(&quot;#SvgjsLinearGradient1060&quot;)" stroke-linecap="round" class="Up"></path><path d="M1426 84L1425 390" stroke-width="8" stroke="url(&quot;#SvgjsLinearGradient1061&quot;)" stroke-linecap="round" class="Down"></path><path d="M975 548L974 202" stroke-width="10" stroke="url(&quot;#SvgjsLinearGradient1061&quot;)" stroke-linecap="round" class="Down"></path><path d="M501 81L500 -163" stroke-width="8" stroke="url(&quot;#SvgjsLinearGradient1060&quot;)" stroke-linecap="round" class="Up"></path><path d="M846 292L845 680" stroke-width="8" stroke="url(&quot;#SvgjsLinearGradient1061&quot;)" stroke-linecap="round" class="Down"></path><path d="M1089 49L1088 -95" stroke-width="6" stroke="url(&quot;#SvgjsLinearGradient1061&quot;)" stroke-linecap="round" class="Down"></path><path d="M901 133L900 -189" stroke-width="10" stroke="url(&quot;#SvgjsLinearGradient1061&quot;)" stroke-linecap="round" class="Down"></path><path d="M1333 76L1332 285" stroke-width="8" stroke="url(&quot;#SvgjsLinearGradient1060&quot;)" stroke-linecap="round" class="Up"></path><path d="M71 204L70 -51" stroke-width="10" stroke="url(&quot;#SvgjsLinearGradient1061&quot;)" stroke-linecap="round" class="Down"></path><path d="M219 20L218 -280" stroke-width="8" stroke="url(&quot;#SvgjsLinearGradient1060&quot;)" stroke-linecap="round" class="Up"></path><path d="M25 446L24 642" stroke-width="6" stroke="url(&quot;#SvgjsLinearGradient1060&quot;)" stroke-linecap="round" class="Up"></path><path d="M564 375L563 636" stroke-width="8" stroke="url(&quot;#SvgjsLinearGradient1060&quot;)" stroke-linecap="round" class="Up"></path><path d="M1301 141L1300 345" stroke-width="10" stroke="url(&quot;#SvgjsLinearGradient1060&quot;)" stroke-linecap="round" class="Up"></path><path d="M1008 445L1007 277" stroke-width="8" stroke="url(&quot;#SvgjsLinearGradient1060&quot;)" stroke-linecap="round" class="Up"></path><path d="M1267 412L1266 632" stroke-width="10" stroke="url(&quot;#SvgjsLinearGradient1060&quot;)" stroke-linecap="round" class="Up"></path><path d="M15 505L14 654" stroke-width="6" stroke="url(&quot;#SvgjsLinearGradient1060&quot;)" stroke-linecap="round" class="Up"></path><path d="M963 182L962 -27" stroke-width="8" stroke="url(&quot;#SvgjsLinearGradient1061&quot;)" stroke-linecap="round" class="Down"></path><path d="M295 346L294 165" stroke-width="8" stroke="url(&quot;#SvgjsLinearGradient1061&quot;)" stroke-linecap="round" class="Down"></path><path d="M576 463L575 315" stroke-width="10" stroke="url(&quot;#SvgjsLinearGradient1060&quot;)" stroke-linecap="round" class="Up"></path><path d="M273 521L272 740" stroke-width="8" stroke="url(&quot;#SvgjsLinearGradient1060&quot;)" stroke-linecap="round" class="Up"></path><path d="M978 169L977 460" stroke-width="6" stroke="url(&quot;#SvgjsLinearGradient1061&quot;)" stroke-linecap="round" class="Down"></path><path d="M1355 331L1354 692" stroke-width="8" stroke="url(&quot;#SvgjsLinearGradient1060&quot;)" stroke-linecap="round" class="Up"></path><path d="M40 548L39 821" stroke-width="10" stroke="url(&quot;#SvgjsLinearGradient1060&quot;)" stroke-linecap="round" class="Up"></path><path d="M557 136L556 512" stroke-width="6" stroke="url(&quot;#SvgjsLinearGradient1060&quot;)" stroke-linecap="round" class="Up"></path><path d="M413 523L412 820" stroke-width="8" stroke="url(&quot;#SvgjsLinearGradient1061&quot;)" stroke-linecap="round" class="Down"></path><path d="M67 542L66 780" stroke-width="10" stroke="url(&quot;#SvgjsLinearGradient1060&quot;)" stroke-linecap="round" class="Up"></path><path d="M230 60L229 234" stroke-width="10" stroke="url(&quot;#SvgjsLinearGradient1061&quot;)" stroke-linecap="round" class="Down"></path></g><defs><mask id="SvgjsMask1059"><rect width="1440" height="560" fill="#ffffff"></rect></mask><linearGradient x1="0%" y1="100%" x2="0%" y2="0%" id="SvgjsLinearGradient1060"><stop stop-color="rgba(28, 83, 142, 0)" offset="0"></stop><stop stop-color="rgba(28, 83, 142, 1)" offset="1"></stop></linearGradient><linearGradient x1="0%" y1="0%" x2="0%" y2="100%" id="SvgjsLinearGradient1061"><stop stop-color="rgba(28, 83, 142, 0)" offset="0"></stop><stop stop-color="rgba(28, 83, 142, 1)" offset="1"></stop></linearGradient></defs></svg>